<?xml version="1.0" encoding="UTF-8" standalone="no"?>
<svg
   width="14.859347in"
   height="3.1163378in"
   viewBox="0 0 1069.873 224.37655"
   version="1.1"
   id="svg3"
   xml:space="preserve"
   xmlns="http://www.w3.org/2000/svg"
   xmlns:svg="http://www.w3.org/2000/svg"><defs
     id="defs7" /><path
     style="display:inline;mix-blend-mode:normal;fill:#69b565;fill-opacity:1;stroke:#009455;stroke-opacity:1"
     d="m 140.07131,95.964299 c -5.36888,-5.78848 -14.79769,-9.41153 -20.53994,-18.261945 -9.69419,-14.95643 0.34225,-35.136486 -13.22562,-53.395276 -2.29088,-3.081951 -5.10401,-4.973407 -8.536139,-6.618811 -13.81134,-6.626693 -26.9421,2.151797 -30.4761,16.112126 -1.83682,7.283682 -1.16559,16.447313 0.54269,23.704982 5.69164,24.140119 20.793,38.076854 45.548449,42.039724 10.82921,1.730181 16.9712,1.788521 26.68666,-3.5808 z"
     id="path424" /><path
     style="display:inline;mix-blend-mode:normal;fill:#40a5f1;fill-opacity:1;stroke:#006abf;stroke-opacity:1"
     d="m 71.022602,151.76149 c 7.70773,-1.70943 15.59752,-8.01659 26.13641,-8.50152 17.804898,-0.81113 30.150988,18.04462 52.762718,15.55859 3.81705,-0.42024 6.87049,-1.89258 10.02427,-4.02343 12.69586,-8.57212 11.75278,-24.33884 1.4898,-34.44088 -5.35817,-5.2646 -13.60573,-9.31432 -20.73226,-11.50625 -23.70881,-7.28235 -43.365128,-1.2896 -59.290458,18.07325 -6.96359,8.47193 -10.11657,13.74318 -10.39048,24.84024 z"
     id="path309" /><path
     style="display:inline;mix-blend-mode:normal;fill:#40a5f1;fill-opacity:1;stroke:#006abf;stroke-opacity:1"
     d="M 64.24607,73.598719 C 61.20989,87.372848 54.94825,98.91615 41.747234,105.2601 c -8.263229,3.97102 -25.4765,5.32148 -35.7363886,16.72213 -2.737926,3.03747 -3.551233,5.79507 -4.551603,9.63986 -3.181721,12.21165 1.524234,23.35675 14.4557936,26.54976 C 31.35704,161.99427 53.79365,152.1746 63.87622,140.60115 70.55731,132.9249 75.38508,120.97906 75.66488,110.7822 75.95423,99.975409 77.0423,77.769729 64.24607,73.598719 Z"
     id="path307" /><path
     d="m 99.57645,77.708801 c 0.50541,0.558171 1.26427,-0.399221 0.90576,-1.138592 C 97.906845,71.254922 95.716416,65.770319 94.086524,59.964676 92.007615,52.696099 90.829065,44.979017 90.466028,37.05471 90.100351,29.127511 90.534421,21.002739 91.591423,12.83407 92.04359,9.2780816 92.6187,5.7228068 93.281525,2.1506717 93.696539,-0.08552468 91.414316,-0.88533091 90.699032,1.2485029 89.513975,4.7811355 88.510755,8.4210125 87.69076,12.122378 c -1.871178,8.517873 -2.730278,17.419399 -2.317767,26.101121 0.397981,8.673686 2.08743,17.109918 5.050436,24.434182 2.35144,5.825111 5.454192,10.967552 9.153021,15.05112 z"
     style="display:inline;opacity:1;mix-blend-mode:normal;fill:#009455;fill-rule:nonzero;stroke:none;stroke-width:0.930938;stroke-linecap:butt;stroke-linejoin:miter;stroke-miterlimit:10;stroke-dasharray:none"
     stroke-linecap="round"
     id="path240" /><path
     style="mix-blend-mode:normal;fill:#f5f8f8;fill-opacity:1;stroke-width:0.988286;stroke-linecap:round;stroke-linejoin:round"
     id="path1239"
     d="m -8.2930746,128.35863 a 7.4554338,3.7252529 0 0 1 -7.4497574,3.72525 7.4554338,3.7252529 0 0 1 -7.461102,-3.71958 7.4554338,3.7252529 0 0 1 7.438395,-3.73092 7.4554338,3.7252529 0 0 1 7.4724298,3.7139"
     transform="rotate(-17.73868)" /><path
     style="mix-blend-mode:normal;fill:#f5f8f8;fill-opacity:1;stroke-width:0.988286;stroke-linecap:round;stroke-linejoin:round"
     id="path1239-3"
     d="m 188.28316,62.988537 a 7.4554338,3.7252529 0 0 1 -7.44975,3.725252 7.4554338,3.7252529 0 0 1 -7.46111,-3.719579 7.4554338,3.7252529 0 0 1 7.4384,-3.730916 7.4554338,3.7252529 0 0 1 7.47243,3.713897"
     transform="rotate(21.870936)" /><g
     aria-label="Аква Сана"
     transform="matrix(1.1273537,0,0,1.1273537,-72.272046,-23.435433)"
     id="text296"
     style="font-size:160.133px;line-height:1.25;font-family:'El Messiri';-inkscape-font-specification:'El Messiri';fill:#40a5f1;stroke:#0972c6;stroke-width:2.50208"><path
       d="m 357.1295,151.28647 q -5.28439,0 -11.20931,-1.28107 -5.76479,-1.44119 -11.20931,-5.92492 -5.28439,-4.48372 -9.12758,-13.6113 l -3.68306,-8.96745 h -42.59538 l -13.1309,29.14421 h -8.32692 L 305.08628,44.958158 h 7.20598 l 35.86979,85.511022 q 2.8824,7.04585 7.04585,11.20931 4.16346,4.16346 9.60798,4.80399 v 4.00332 q -1.28106,0.32027 -3.68305,0.4804 -2.24187,0.32027 -4.00333,0.32027 z m -74.46184,-36.99072 h 36.19005 L 301.24308,72.501033 Z"
       style="font-weight:bold;-inkscape-font-specification:'El Messiri Bold'"
       id="path5785" /><path
       d="m 432.8723,152.24727 q -6.72559,0 -12.65051,-2.72227 -5.92492,-2.88239 -11.20931,-10.08837 l -15.37276,-20.17676 v 31.38607 H 372.82243 V 96.200717 q 0,-7.205985 -2.08173,-11.529576 -1.9216,-4.483724 -9.12758,-4.483724 h -1.60133 v -4.80399 h 19.21596 q 5.60465,0 8.64718,1.921596 3.20266,1.921596 4.48372,6.40532 1.28107,4.483724 1.28107,12.490374 v 15.212633 l 19.37609,-23.699682 q 4.96412,-5.924921 9.76811,-9.127581 4.80399,-3.20266 13.29104,-3.20266 h 3.20266 v 4.163458 q -4.80399,0 -8.64718,1.921596 -3.84319,1.921596 -7.36612,6.085054 l -15.5329,18.895695 21.29769,28.18341 q 4.16346,5.60465 7.84652,8.48704 3.68305,2.8824 7.04585,3.68306 v 3.8432 q -1.28107,0.64053 -4.64386,1.12093 -3.36279,0.4804 -6.40532,0.4804 z"
       style="font-weight:bold;-inkscape-font-specification:'El Messiri Bold'"
       id="path5787" /><path
       d="M 455.93117,150.64594 V 96.200717 q 0,-7.205985 -2.08173,-11.529576 -1.92159,-4.483724 -9.12758,-4.483724 h -0.80066 v -4.80399 h 42.91564 q 9.60798,0 16.81396,2.241862 7.36612,2.081729 11.36945,6.40532 4.16345,4.163458 4.16345,10.568778 0,7.205983 -5.44452,11.369443 -5.28439,4.16346 -14.89237,5.44452 10.24852,1.28107 16.81397,5.92492 6.72558,4.64386 6.72558,12.49038 0,7.20598 -4.16345,11.84984 -4.16346,4.64385 -12.17011,6.88572 -7.84652,2.08173 -19.21596,2.08173 z m 28.02328,-6.40532 q 7.20598,0 12.00997,-3.52293 4.80399,-3.68306 4.80399,-10.88904 0,-7.68639 -4.96412,-11.36945 -4.96413,-3.84319 -13.45117,-3.84319 h -5.60466 v 28.50367 q 1.76146,0.64054 3.84319,0.9608 2.08173,0.16014 3.3628,0.16014 z m -7.20599,-36.83059 h 5.60466 q 6.08505,0 10.56877,-3.3628 4.64386,-3.36279 4.64386,-9.447843 0,-6.725586 -4.48372,-9.768113 -4.32359,-3.042527 -9.12758,-3.042527 -1.28107,0 -3.3628,0.320266 -2.08173,0.160133 -3.84319,0.800665 z"
       style="font-weight:bold;-inkscape-font-specification:'El Messiri Bold'"
       id="path5789" /><path
       d="m 559.85719,152.24727 q -6.72559,0 -11.84984,-1.60133 -4.96413,-1.60133 -8.48705,-4.3236 -3.36279,-2.88239 -5.12426,-6.88571 -1.76146,-4.00333 -1.76146,-8.80732 0,-7.68638 3.52293,-12.97077 3.68305,-5.44452 13.1309,-8.16678 9.44785,-2.8824 26.58208,-2.8824 h 2.40199 q 0,-9.607978 -1.76146,-15.212633 -1.76146,-5.604655 -5.28439,-8.00665 -3.36279,-2.401995 -8.16678,-2.401995 -5.44452,0 -9.76811,2.722261 -4.32359,2.722261 -6.24519,11.689709 h -8.80732 q 0,-4.163458 0.4804,-8.487049 0.64054,-4.323591 3.52293,-7.526251 2.88239,-3.20266 9.44785,-4.323591 6.72558,-1.281064 14.5721,-1.281064 7.84652,0 13.93157,2.081729 6.08505,2.081729 10.24851,6.245187 4.32359,4.163458 6.40532,10.568778 2.24186,6.245186 2.24186,14.732239 v 43.23591 h -13.6113 l -5.60466,-7.20599 h -0.80066 q -2.08173,3.36279 -7.04585,6.08505 -4.96413,2.72227 -12.17011,2.72227 z m 4.80399,-8.00665 q 5.28439,0 8.80731,-3.52293 3.52293,-3.52293 4.80399,-6.88572 v -20.01662 h -2.40199 q -11.52958,0 -16.65383,4.16345 -4.96413,4.16346 -4.96413,12.65051 0,6.72559 2.72226,10.24851 2.8824,3.3628 7.68639,3.3628 z"
       style="font-weight:bold;-inkscape-font-specification:'El Messiri Bold'"
       id="path5791" /><path
       d="m 706.21821,153.84859 q -16.81396,0 -28.6638,-7.20598 -11.84985,-7.20598 -18.09503,-19.53623 -6.08506,-12.33024 -6.08506,-27.703004 0,-12.170107 3.84319,-22.578752 4.00333,-10.568778 11.20931,-18.415294 7.20599,-7.846517 16.81397,-12.170108 9.60798,-4.483724 20.97742,-4.483724 15.0525,0 24.18008,4.003325 9.28772,3.843192 13.77144,8.967448 3.20266,4.163458 3.68306,10.72891 0.4804,6.565453 0.4804,13.611305 H 743.5292 Q 740.48667,64.494383 732.31989,56.808 q -8.00665,-7.846517 -21.29769,-7.846517 -9.76811,0 -17.77476,4.483724 -8.00665,4.483724 -12.81064,15.5329 -4.64386,10.889044 -4.64386,30.425269 0,9.127584 1.9216,17.614634 1.92159,8.48704 6.08505,15.21263 4.32359,6.72559 10.88905,10.56878 6.72558,3.84319 16.33356,3.84319 11.04918,0 20.49702,-5.76479 9.44785,-5.92492 15.21264,-17.13423 l 5.60465,4.32359 q -7.52625,13.29104 -18.41529,19.53623 -10.88904,6.24518 -27.70301,6.24518 z"
       style="font-weight:bold;-inkscape-font-specification:'El Messiri Bold'"
       id="path5793" /><path
       d="m 788.04597,152.24727 q -6.72559,0 -11.84984,-1.60133 -4.96412,-1.60133 -8.48705,-4.3236 -3.36279,-2.88239 -5.12426,-6.88571 -1.76146,-4.00333 -1.76146,-8.80732 0,-7.68638 3.52293,-12.97077 3.68306,-5.44452 13.1309,-8.16678 9.44785,-2.8824 26.58208,-2.8824 h 2.402 q 0,-9.607978 -1.76147,-15.212633 -1.76146,-5.604655 -5.28439,-8.00665 -3.36279,-2.401995 -8.16678,-2.401995 -5.44452,0 -9.76811,2.722261 -4.32359,2.722261 -6.24519,11.689709 h -8.80731 q 0,-4.163458 0.4804,-8.487049 0.64053,-4.323591 3.52292,-7.526251 2.88239,-3.20266 9.44785,-4.323591 6.72558,-1.281064 14.5721,-1.281064 7.84652,0 13.93157,2.081729 6.08505,2.081729 10.24851,6.245187 4.32359,4.163458 6.40532,10.568778 2.24186,6.245186 2.24186,14.732239 v 43.23591 h -13.6113 l -5.60466,-7.20599 h -0.80066 q -2.08173,3.36279 -7.04585,6.08505 -4.96412,2.72227 -12.17011,2.72227 z m 4.80399,-8.00665 q 5.28439,0 8.80732,-3.52293 3.52292,-3.52293 4.80399,-6.88572 v -20.01662 h -2.402 q -11.52958,0 -16.65383,4.16345 -4.96412,4.16346 -4.96412,12.65051 0,6.72559 2.72226,10.24851 2.88239,3.3628 7.68638,3.3628 z"
       style="font-weight:bold;-inkscape-font-specification:'El Messiri Bold'"
       id="path5795" /><path
       d="M 848.25573,150.64594 V 96.200717 q 0,-7.205985 -2.08173,-11.529576 -1.92159,-4.483724 -9.12758,-4.483724 h -1.60133 v -4.80399 h 19.21596 q 5.60466,0 8.64718,1.921596 3.20266,1.921596 4.48373,6.40532 1.28106,4.483724 1.28106,12.490374 V 109.01136 H 894.6943 V 75.383427 h 20.81729 v 54.445223 q 0,7.20598 1.9216,11.6897 2.08172,4.3236 9.28771,4.3236 h 1.60133 v 4.80399 h -19.21596 q -5.60466,0 -8.80732,-1.76147 -3.04252,-1.92159 -4.32359,-6.40532 -1.28106,-4.64385 -1.28106,-12.6505 v -13.61131 h -25.62128 v 34.4286 z"
       style="font-weight:bold;-inkscape-font-specification:'El Messiri Bold'"
       id="path5797" /><path
       d="m 960.02839,152.24727 q -6.72558,0 -11.84984,-1.60133 -4.96412,-1.60133 -8.48705,-4.3236 -3.36279,-2.88239 -5.12425,-6.88571 -1.76147,-4.00333 -1.76147,-8.80732 0,-7.68638 3.52293,-12.97077 3.68306,-5.44452 13.1309,-8.16678 9.44785,-2.8824 26.58208,-2.8824 h 2.402 q 0,-9.607978 -1.76147,-15.212633 -1.76146,-5.604655 -5.28438,-8.00665 -3.3628,-2.401995 -8.16679,-2.401995 -5.44452,0 -9.76811,2.722261 -4.32359,2.722261 -6.24519,11.689709 h -8.80731 q 0,-4.163458 0.4804,-8.487049 0.64053,-4.323591 3.52292,-7.526251 2.8824,-3.20266 9.44785,-4.323591 6.72559,-1.281064 14.5721,-1.281064 7.84652,0 13.93157,2.081729 6.08506,2.081729 10.24851,6.245187 4.3236,4.163458 6.40532,10.568778 2.24187,6.245186 2.24187,14.732239 v 43.23591 h -13.61131 l -5.60465,-7.20599 h -0.80067 q -2.08173,3.36279 -7.04585,6.08505 -4.96412,2.72227 -12.17011,2.72227 z m 4.80399,-8.00665 q 5.28439,0 8.80732,-3.52293 3.52292,-3.52293 4.80399,-6.88572 v -20.01662 h -2.402 q -11.52957,0 -16.65383,4.16345 -4.96412,4.16346 -4.96412,12.65051 0,6.72559 2.72226,10.24851 2.88239,3.3628 7.68638,3.3628 z"
       style="font-weight:bold;-inkscape-font-specification:'El Messiri Bold'"
       id="path5799" /></g><g
     aria-label="Офіційне представництво м. Кривий Ріг"
     id="text3672"
     style="font-size:48px;line-height:1.25;-inkscape-font-specification:sans-serif;fill:#009455;stroke-width:0.750001"
     transform="translate(1.0384855,-0.46148083)"><path
       d="m 162.06844,196.13404 q 0,5.328 -1.824,9.312 -1.776,3.936 -5.28,6.144 -3.504,2.208 -8.688,2.208 -5.328,0 -8.88,-2.208 -3.504,-2.208 -5.232,-6.192 -1.728,-3.984 -1.728,-9.312 0,-5.28 1.728,-9.216 1.728,-3.936 5.232,-6.144 3.552,-2.208 8.928,-2.208 5.136,0 8.64,2.208 3.504,2.16 5.28,6.144 1.824,3.936 1.824,9.264 z m -27.072,0 q 0,6.48 2.736,10.224 2.736,3.696 8.544,3.696 5.856,0 8.544,-3.696 2.688,-3.744 2.688,-10.224 0,-6.48 -2.688,-10.128 -2.688,-3.696 -8.496,-3.696 -5.808,0 -8.592,3.696 -2.736,3.648 -2.736,10.128 z"
       id="path5718" /><path
       d="m 184.43635,176.83804 v 10.368 q 3.84,0.336 6.672,2.016 2.88,1.68 4.464,4.512 1.584,2.832 1.584,6.72 0,5.808 -3.408,9.264 -3.36,3.456 -9.312,3.984 v 11.136 h -4.128 v -11.136 q -3.792,-0.336 -6.672,-1.968 -2.88,-1.68 -4.464,-4.512 -1.584,-2.88 -1.584,-6.768 0,-5.856 3.36,-9.312 3.408,-3.456 9.504,-3.936 v -10.368 z m -3.984,13.872 q -4.416,0.432 -6.432,2.928 -2.016,2.448 -2.016,6.816 0,4.368 2.016,6.864 2.064,2.496 6.432,2.928 z m 3.984,0.048 v 19.488 q 4.32,-0.48 6.336,-2.976 2.016,-2.496 2.016,-6.816 0,-4.32 -2.064,-6.768 -2.016,-2.448 -6.288,-2.928 z"
       id="path5720" /><path
       d="m 208.10028,213.31804 h -4.224 v -25.728 h 4.224 z"
       id="path5722" /><path
       d="m 241.65225,222.24604 h -4.128 v -8.928 h -21.264 v -25.728 h 4.224 v 22.176 h 13.296 v -22.176 h 4.224 v 22.224 h 3.648 z"
       id="path5724" /><path
       d="m 250.82025,213.31804 h -4.224 v -25.728 h 4.224 z"
       id="path5726" /><path
       d="m 279.81222,176.93404 q -0.336,3.6 -2.448,5.472 -2.064,1.824 -6.624,1.824 -4.704,0 -6.672,-1.824 -1.92,-1.824 -2.16,-5.472 h 3.936 q 0.24,2.592 1.344,3.504 1.152,0.864 3.648,0.864 2.208,0 3.456,-0.912 1.296,-0.96 1.536,-3.456 z m -16.848,10.656 v 15.696 q 0,0.576 -0.048,1.728 -0.048,1.152 -0.144,2.304 -0.048,1.152 -0.096,1.824 l 13.776,-21.552 h 5.184 v 25.728 h -3.936 v -15.168 q 0,-0.768 0,-2.016 0.048,-1.248 0.096,-2.448 0.048,-1.248 0.096,-1.872 l -13.68,21.504 h -5.232 v -25.728 z"
       id="path5728" /><path
       d="m 294.06821,187.59004 v 10.704 h 13.968 v -10.704 h 4.224 v 25.728 h -4.224 v -11.472 h -13.968 v 11.472 h -4.224 v -25.728 z"
       id="path5730" /><path
       d="m 330.35616,187.11004 q 3.312,0 5.664,1.44 2.4,1.44 3.648,4.08 1.296,2.592 1.296,6.096 v 2.544 h -17.616 q 0.096,4.368 2.208,6.672 2.16,2.256 6,2.256 2.448,0 4.32,-0.432 1.92,-0.48 3.936,-1.344 v 3.696 q -1.968,0.864 -3.888,1.248 -1.92,0.432 -4.56,0.432 -3.648,0 -6.48,-1.488 -2.784,-1.488 -4.368,-4.416 -1.536,-2.976 -1.536,-7.248 0,-4.224 1.392,-7.248 1.44,-3.024 3.984,-4.656 2.592,-1.632 6,-1.632 z m -0.048,3.456 q -3.024,0 -4.8,1.968 -1.728,1.92 -2.064,5.376 h 13.104 q -0.048,-3.264 -1.536,-5.28 -1.488,-2.064 -4.704,-2.064 z"
       id="path5732" /><path
       d="m 381.71604,187.59004 v 25.728 h -4.224 v -22.128 h -13.296 v 22.128 h -4.224 v -25.728 z"
       id="path5734" /><path
       d="m 402.16398,187.11004 q 4.752,0 7.632,3.312 2.928,3.312 2.928,9.984 0,6.576 -2.928,9.984 -2.88,3.408 -7.68,3.408 -2.976,0 -4.944,-1.104 -1.92,-1.152 -3.024,-2.64 h -0.288 q 0.096,0.816 0.192,2.064 0.096,1.248 0.096,2.16 v 10.56 h -4.224 v -37.248 h 3.456 l 0.576,3.504 h 0.192 q 1.152,-1.68 3.024,-2.832 1.872,-1.152 4.992,-1.152 z m -0.768,3.552 q -3.936,0 -5.568,2.208 -1.584,2.208 -1.68,6.72 v 0.816 q 0,4.752 1.536,7.344 1.584,2.544 5.808,2.544 2.352,0 3.84,-1.296 1.536,-1.296 2.256,-3.504 0.768,-2.256 0.768,-5.136 0,-4.416 -1.728,-7.056 -1.68,-2.64 -5.232,-2.64 z"
       id="path5736" /><path
       d="m 429.37997,187.11004 q 3.312,0 5.664,1.44 2.4,1.44 3.648,4.08 1.296,2.592 1.296,6.096 v 2.544 h -17.616 q 0.096,4.368 2.208,6.672 2.16,2.256 6,2.256 2.448,0 4.32,-0.432 1.92,-0.48 3.936,-1.344 v 3.696 q -1.968,0.864 -3.888,1.248 -1.92,0.432 -4.56,0.432 -3.648,0 -6.48,-1.488 -2.784,-1.488 -4.368,-4.416 -1.536,-2.976 -1.536,-7.248 0,-4.224 1.392,-7.248 1.44,-3.024 3.984,-4.656 2.592,-1.632 6,-1.632 z m -0.048,3.456 q -3.024,0 -4.8,1.968 -1.728,1.92 -2.064,5.376 h 13.104 q -0.048,-3.264 -1.536,-5.28 -1.488,-2.064 -4.704,-2.064 z"
       id="path5738" /><path
       d="m 465.61993,187.59004 v 22.176 h 3.744 v 12.48 h -4.08 v -8.928 h -17.904 v 8.928 h -4.032 v -12.48 h 2.064 q 3.312,-4.56 4.944,-10.368 1.68,-5.856 1.728,-11.808 z m -4.08,3.312 h -5.712 q -0.192,3.264 -1.008,6.768 -0.816,3.456 -2.112,6.624 -1.248,3.168 -2.928,5.472 h 11.76 z"
       id="path5740" /><path
       d="m 484.7239,213.79804 q -3.408,0 -6.096,-1.392 -2.64,-1.392 -4.176,-4.32 -1.488,-2.928 -1.488,-7.488 0,-4.752 1.584,-7.728 1.584,-2.976 4.272,-4.368 2.736,-1.392 6.192,-1.392 1.968,0 3.792,0.432 1.824,0.384 2.976,0.96 l -1.296,3.504 q -1.152,-0.432 -2.688,-0.816 -1.536,-0.384 -2.88,-0.384 -7.584,0 -7.584,9.744 0,4.656 1.824,7.152 1.872,2.448 5.52,2.448 2.112,0 3.696,-0.432 1.632,-0.432 2.976,-1.056 v 3.744 q -1.296,0.672 -2.88,1.008 -1.536,0.384 -3.744,0.384 z"
       id="path5742" /><path
       d="m 515.20388,191.14204 h -8.4 v 22.176 h -4.176 v -22.176 h -8.304 v -3.552 h 20.88 z"
       id="path5744" /><path
       d="m 530.03587,187.15804 q 4.704,0 6.96,2.064 2.256,2.064 2.256,6.576 v 17.52 h -3.072 l -0.816,-3.648 h -0.192 q -1.68,2.112 -3.552,3.12 -1.824,1.008 -5.088,1.008 -3.504,0 -5.808,-1.824 -2.304,-1.872 -2.304,-5.808 0,-3.84 3.024,-5.904 3.024,-2.112 9.312,-2.304 l 4.368,-0.144 v -1.536 q 0,-3.216 -1.392,-4.464 -1.392,-1.248 -3.936,-1.248 -2.016,0 -3.84,0.624 -1.824,0.576 -3.408,1.344 l -1.296,-3.168 q 1.68,-0.912 3.984,-1.536 2.304,-0.672 4.8,-0.672 z m 5.04,13.584 -3.792,0.144 q -4.8,0.192 -6.672,1.536 -1.824,1.344 -1.824,3.792 0,2.16 1.296,3.168 1.344,1.008 3.408,1.008 3.264,0 5.424,-1.776 2.16,-1.824 2.16,-5.568 z"
       id="path5746" /><path
       d="m 567.90782,194.07004 q 0,2.4 -1.44,3.744 -1.44,1.344 -3.696,1.824 v 0.192 q 2.4,0.336 4.176,1.728 1.776,1.344 1.776,4.224 0,3.264 -2.448,5.424 -2.4,2.112 -7.968,2.112 h -11.088 v -25.728 h 11.04 q 2.736,0 4.896,0.624 2.208,0.576 3.456,2.016 1.296,1.392 1.296,3.84 z m -4.272,0.528 q 0,-1.824 -1.344,-2.64 -1.296,-0.864 -4.272,-0.864 h -6.576 v 7.056 h 5.808 q 6.384,0 6.384,-3.552 z m 0.72,11.184 q 0,-2.208 -1.68,-3.168 -1.68,-0.96 -4.944,-0.96 h -6.288 v 8.256 h 6.384 q 3.168,0 4.848,-0.912 1.68,-0.96 1.68,-3.216 z"
       id="path5748" /><path
       d="m 579.09173,187.59004 v 10.704 h 13.968 v -10.704 h 4.224 v 25.728 h -4.224 v -11.472 h -13.968 v 11.472 h -4.224 v -25.728 z"
       id="path5750" /><path
       d="m 609.42769,187.59004 v 15.696 q 0,0.576 -0.048,1.728 -0.048,1.152 -0.144,2.304 -0.048,1.152 -0.096,1.824 l 13.776,-21.552 h 5.184 v 25.728 h -3.936 v -15.168 q 0,-0.768 0,-2.016 0.048,-1.248 0.096,-2.448 0.048,-1.248 0.096,-1.872 l -13.68,21.504 h -5.232 v -25.728 z"
       id="path5752" /><path
       d="m 661.69968,222.24604 h -4.128 v -8.928 h -21.264 v -25.728 h 4.224 v 22.176 h 13.296 v -22.176 h 4.224 v 22.224 h 3.648 z"
       id="path5754" /><path
       d="m 684.40367,191.14204 h -8.4 v 22.176 h -4.176 v -22.176 h -8.304 v -3.552 h 20.88 z"
       id="path5756" /><path
       d="m 710.17964,194.07004 q 0,2.4 -1.44,3.744 -1.44,1.344 -3.696,1.824 v 0.192 q 2.4,0.336 4.176,1.728 1.776,1.344 1.776,4.224 0,3.264 -2.448,5.424 -2.4,2.112 -7.968,2.112 h -11.088 v -25.728 h 11.04 q 2.736,0 4.896,0.624 2.208,0.576 3.456,2.016 1.296,1.392 1.296,3.84 z m -4.272,0.528 q 0,-1.824 -1.344,-2.64 -1.296,-0.864 -4.272,-0.864 h -6.576 v 7.056 h 5.808 q 6.384,0 6.384,-3.552 z m 0.72,11.184 q 0,-2.208 -1.68,-3.168 -1.68,-0.96 -4.944,-0.96 h -6.288 v 8.256 h 6.384 q 3.168,0 4.848,-0.912 1.68,-0.96 1.68,-3.216 z"
       id="path5758" /><path
       d="m 739.50759,200.40604 q 0,6.384 -3.264,9.888 -3.216,3.504 -8.736,3.504 -3.408,0 -6.096,-1.536 -2.64,-1.584 -4.176,-4.56 -1.536,-3.024 -1.536,-7.296 0,-6.384 3.216,-9.84 3.216,-3.456 8.736,-3.456 3.504,0 6.144,1.584 2.688,1.536 4.176,4.512 1.536,2.928 1.536,7.2 z m -19.44,0 q 0,4.56 1.776,7.248 1.824,2.64 5.76,2.64 3.888,0 5.712,-2.64 1.824,-2.688 1.824,-7.248 0,-4.56 -1.824,-7.152 -1.824,-2.592 -5.76,-2.592 -3.936,0 -5.712,2.592 -1.776,2.592 -1.776,7.152 z"
       id="path5760" /><path
       d="m 786.25948,187.59004 v 25.728 h -3.792 v -16.416 q 0,-1.008 0.048,-2.112 0.096,-1.104 0.192,-2.16 h -0.144 l -8.4,20.688 h -3.552 l -8.16,-20.688 h -0.144 q 0.144,2.16 0.144,4.416 v 16.272 h -3.792 v -25.728 h 5.616 l 8.112,20.688 8.256,-20.688 z"
       id="path5762" /><path
       d="m 793.84341,210.72604 q 0,-1.776 0.864,-2.496 0.864,-0.72 2.064,-0.72 1.248,0 2.112,0.72 0.912,0.72 0.912,2.496 0,1.728 -0.912,2.496 -0.864,0.768 -2.112,0.768 -1.2,0 -2.064,-0.768 -0.864,-0.768 -0.864,-2.496 z"
       id="path5764" /><path
       d="m 845.39534,213.31804 h -5.184 l -15.504,-17.376 v 17.376 h -4.32 v -34.272 h 4.32 v 16.608 l 15.12,-16.608 h 4.896 l -14.88,16.656 z"
       id="path5766" /><path
       d="m 861.71522,187.11004 q 4.752,0 7.632,3.312 2.928,3.312 2.928,9.984 0,6.576 -2.928,9.984 -2.88,3.408 -7.68,3.408 -2.976,0 -4.944,-1.104 -1.92,-1.152 -3.024,-2.64 h -0.288 q 0.096,0.816 0.192,2.064 0.096,1.248 0.096,2.16 v 10.56 h -4.224 v -37.248 h 3.456 l 0.576,3.504 h 0.192 q 1.152,-1.68 3.024,-2.832 1.872,-1.152 4.992,-1.152 z m -0.768,3.552 q -3.936,0 -5.568,2.208 -1.584,2.208 -1.68,6.72 v 0.816 q 0,4.752 1.536,7.344 1.584,2.544 5.808,2.544 2.352,0 3.84,-1.296 1.536,-1.296 2.256,-3.504 0.768,-2.256 0.768,-5.136 0,-4.416 -1.728,-7.056 -1.68,-2.64 -5.232,-2.64 z"
       id="path5768" /><path
       d="m 882.97918,187.59004 v 15.696 q 0,0.576 -0.048,1.728 -0.048,1.152 -0.144,2.304 -0.048,1.152 -0.096,1.824 l 13.776,-21.552 h 5.184 v 25.728 h -3.936 v -15.168 q 0,-0.768 0,-2.016 0.048,-1.248 0.096,-2.448 0.048,-1.248 0.096,-1.872 l -13.68,21.504 h -5.232 v -25.728 z"
       id="path5770" /><path
       d="m 930.54719,194.07004 q 0,2.4 -1.44,3.744 -1.44,1.344 -3.696,1.824 v 0.192 q 2.4,0.336 4.176,1.728 1.776,1.344 1.776,4.224 0,3.264 -2.448,5.424 -2.4,2.112 -7.968,2.112 h -11.088 v -25.728 h 11.04 q 2.736,0 4.896,0.624 2.208,0.576 3.456,2.016 1.296,1.392 1.296,3.84 z m -4.272,0.528 q 0,-1.824 -1.344,-2.64 -1.296,-0.864 -4.272,-0.864 h -6.576 v 7.056 h 5.808 q 6.384,0 6.384,-3.552 z m 0.72,11.184 q 0,-2.208 -1.68,-3.168 -1.68,-0.96 -4.944,-0.96 h -6.288 v 8.256 h 6.384 q 3.168,0 4.848,-0.912 1.68,-0.96 1.68,-3.216 z"
       id="path5772" /><path
       d="m 941.49114,187.59004 v 15.696 q 0,0.576 -0.048,1.728 -0.048,1.152 -0.144,2.304 -0.048,1.152 -0.096,1.824 l 13.776,-21.552 h 5.184 v 25.728 h -3.936 v -15.168 q 0,-0.768 0,-2.016 0.048,-1.248 0.096,-2.448 0.048,-1.248 0.096,-1.872 l -13.68,21.504 h -5.232 v -25.728 z"
       id="path5774" /><path
       d="m 989.20309,176.93404 q -0.336,3.6 -2.448,5.472 -2.064,1.824 -6.624,1.824 -4.704,0 -6.672,-1.824 -1.92,-1.824 -2.16,-5.472 h 3.936 q 0.24,2.592 1.344,3.504 1.152,0.864 3.648,0.864 2.208,0 3.456,-0.912 1.296,-0.96 1.536,-3.456 z m -16.848,10.656 v 15.696 q 0,0.576 -0.048,1.728 -0.048,1.152 -0.144,2.304 -0.048,1.152 -0.096,1.824 l 13.776,-21.552 h 5.184 v 25.728 h -3.936 v -15.168 q 0,-0.768 0,-2.016 0.048,-1.248 0.096,-2.448 0.048,-1.248 0.096,-1.872 l -13.68,21.504 h -5.232 v -25.728 z"
       id="path5776" /><path
       d="m 1021.363,179.04604 q 6.72,0 9.792,2.64 3.072,2.64 3.072,7.44 0,2.832 -1.296,5.328 -1.248,2.448 -4.272,3.984 -2.976,1.536 -8.112,1.536 h -3.936 v 13.344 h -4.32 v -34.272 z m -0.384,3.696 h -4.368 v 13.536 h 3.456 q 4.896,0 7.296,-1.584 2.4,-1.584 2.4,-5.376 0,-3.312 -2.112,-4.944 -2.112,-1.632 -6.672,-1.632 z"
       id="path5778" /><path
       d="m 1044.9789,213.31804 h -4.224 v -25.728 h 4.224 z"
       id="path5780" /><path
       d="m 1068.835,187.59004 v 3.552 h -11.472 v 22.176 h -4.224 v -25.728 z"
       id="path5782" /></g></svg>
