<?xml version="1.0" encoding="UTF-8" standalone="no"?>
<!-- Created with Inkscape (http://www.inkscape.org/) -->

<svg
   width="11.047228mm"
   height="11.01819mm"
   viewBox="0 0 11.047228 11.01819"
   version="1.1"
   id="svg5"
   xml:space="preserve"
   xmlns:inkscape="http://www.inkscape.org/namespaces/inkscape"
   xmlns:sodipodi="http://sodipodi.sourceforge.net/DTD/sodipodi-0.dtd"
   xmlns="http://www.w3.org/2000/svg"
   xmlns:svg="http://www.w3.org/2000/svg"><sodipodi:namedview
     id="namedview7"
     pagecolor="#ffffff"
     bordercolor="#666666"
     borderopacity="1.0"
     inkscape:showpageshadow="2"
     inkscape:pageopacity="0.0"
     inkscape:pagecheckerboard="0"
     inkscape:deskcolor="#d1d1d1"
     inkscape:document-units="mm"
     showgrid="false" /><defs
     id="defs2" /><g
     inkscape:label="Слой 1"
     inkscape:groupmode="layer"
     id="layer1"
     transform="translate(-48.500036,-141.74482)"><path
       style="fill:#006ef9;fill-opacity:1;stroke-width:0.0846667"
       d="m 53.042481,152.71561 c -0.513388,-0.0851 -1.35569,-0.40217 -1.862666,-0.70126 -2.712688,-1.60031 -3.506058,-5.21356 -1.731019,-7.8836 0.70348,-1.05819 1.902527,-1.90553 3.170352,-2.24042 0.726597,-0.19194 2.064035,-0.19438 2.794,-0.005 1.521921,0.3946 2.878758,1.48343 3.545509,2.84519 0.46847,0.95679 0.631189,1.75346 0.579376,2.83662 -0.06992,1.46168 -0.575625,2.58795 -1.63363,3.6383 -1.059097,1.05143 -2.375172,1.57943 -3.880632,1.55688 -0.423292,-0.006 -0.864873,-0.0273 -0.98129,-0.0466 z"
       id="path2556" /><path
       style="fill:#ffffff;fill-opacity:1;stroke-width:0.0846667"
       d="m 56.194274,149.9331 0.06554,-2.66465 -0.04934,-2.91 c -0.26326,-0.39565 -0.541118,-0.39421 -1.850189,-0.39421 l -0.255226,0.004 c -1.669484,0.0273 -1.967589,0.0577 -2.160752,0.41864 -0.05462,0.10206 -0.108535,1.18298 -0.08718,2.89432 l 0.0343,2.74873 c 0.07761,0.30056 0.07979,0.47312 0.880593,0.50899 0.06628,-0.006 2.557124,-0.0169 2.584833,-0.0173 0.532173,-0.0597 0.813951,-0.25135 0.837421,-0.58856 z"
       id="path2558"
       sodipodi:nodetypes="ccccssscccc" /><path
       style="fill:#006ef9;fill-opacity:1;stroke-width:0.0846667"
       d="m 53.401382,149.79677 c -0.140782,-0.14078 -0.132956,-0.45035 0.01448,-0.57271 0.07299,-0.0606 0.344435,-0.0893 0.6985,-0.0739 l 0.579121,0.0252 c 0.300827,0.24218 0.267527,0.46031 0,0.67733 l -0.593599,0.0245 c -0.388933,0.016 -0.629768,-0.0117 -0.6985,-0.0804 z"
       id="path2560"
       sodipodi:nodetypes="cccccccc" /></g></svg>
