<?xml version="1.0" encoding="UTF-8" standalone="no"?>
<!-- Created with Inkscape (http://www.inkscape.org/) -->

<svg
   width="11.003319mm"
   height="11.066291mm"
   viewBox="0 0 11.003319 11.066291"
   version="1.1"
   id="svg5"
   xml:space="preserve"
   xmlns:inkscape="http://www.inkscape.org/namespaces/inkscape"
   xmlns:sodipodi="http://sodipodi.sourceforge.net/DTD/sodipodi-0.dtd"
   xmlns="http://www.w3.org/2000/svg"
   xmlns:svg="http://www.w3.org/2000/svg"><sodipodi:namedview
     id="namedview7"
     pagecolor="#ffffff"
     bordercolor="#666666"
     borderopacity="1.0"
     inkscape:showpageshadow="2"
     inkscape:pageopacity="0.0"
     inkscape:pagecheckerboard="0"
     inkscape:deskcolor="#d1d1d1"
     inkscape:document-units="mm"
     showgrid="false" /><defs
     id="defs2" /><g
     inkscape:label="Слой 1"
     inkscape:groupmode="layer"
     id="layer1"
     transform="translate(-48.387922,-157.09569)"><path
       style="fill:#2db5e5;fill-opacity:1;stroke-width:0.0846667"
       d="m 53.254148,168.13573 c -0.09313,-0.0214 -0.378883,-0.08 -0.635,-0.13004 -0.256117,-0.0501 -0.789517,-0.2454 -1.185333,-0.43404 -0.589692,-0.28105 -0.850503,-0.47471 -1.444103,-1.07229 -0.795064,-0.80039 -1.217726,-1.52854 -1.479943,-2.54962 -0.211883,-0.82508 -0.138125,-2.38493 0.149096,-3.15312 1.15824,-3.09777 4.581919,-4.55137 7.50887,-3.18806 2.035071,0.94789 3.219841,2.79744 3.223495,5.03222 0.0015,0.93779 -0.148384,1.55652 -0.604353,2.49429 -0.279411,0.57465 -0.488237,0.85623 -1.036325,1.39737 -0.745224,0.73577 -1.34948,1.10275 -2.289365,1.39038 -0.560075,0.1714 -1.847852,0.29563 -2.207039,0.21291 z"
       id="path2542" /><path
       style="fill:#ffffff;fill-opacity:1;stroke-width:0.0846667"
       d="m 55.782064,165.36791 c 0.06535,-0.10478 0.141086,-0.36195 0.168301,-0.5715 0.02721,-0.20955 0.18389,-1.23771 0.348168,-2.2848 0.164278,-1.04709 0.277354,-1.97101 0.251279,-2.05317 -0.03126,-0.0985 -0.132953,-0.14937 -0.298506,-0.14937 -0.138103,0 -1.44046,0.49153 -2.894127,1.09229 -3.352896,1.38565 -3.108697,1.26782 -3.108697,1.49995 0,0.16882 0.08968,0.22273 0.681704,0.40975 0.374937,0.11844 0.786102,0.21535 0.9137,0.21535 0.155073,0 0.691135,-0.30936 1.616746,-0.933 0.761612,-0.51315 1.407722,-0.9091 1.435799,-0.8799 0.02808,0.0292 -0.396625,0.48336 -0.943783,1.00924 -0.624639,0.60035 -0.994833,1.01965 -0.994833,1.12679 0,0.18744 0.286038,0.43228 1.291652,1.10565 0.987546,0.66127 1.32148,0.75119 1.532597,0.41272 z"
       id="path2546" /></g></svg>
